HIERARCHY
ROOT joint_Root
{
	OFFSET 0.0 0.0 0.0
	CHANNELS 6 Xposition Yposition Zposition Zrotation Xrotation Yrotation 
	JOINT Hips
	{
		OFFSET 4.5925 91.4895 -427.239
		CHANNELS 6 Xposition Yposition Zposition Zrotation Xrotation Yrotation 
		JOINT Spine
		{
			OFFSET 15.7357 0.0 0.0
			CHANNELS 6 Xposition Yposition Zposition Zrotation Xrotation Yrotation 
			JOINT Chest
			{
				OFFSET 8.98455 -0.406207 0.0
				CHANNELS 6 Xposition Yposition Zposition Zrotation Xrotation Yrotation 
				JOINT Neck
				{
					OFFSET 16.3773 0.0 0.0
					CHANNELS 6 Xposition Yposition Zposition Zrotation Xrotation Yrotation 
					JOINT Head
					{
						OFFSET 6.45672 0.0 0.0
						CHANNELS 6 Xposition Yposition Zposition Zrotation Xrotation Yrotation 
						End Site
						{
							OFFSET 0.0 0.0 0.0
						}
					}
				}
				JOINT Shoulder_L
				{
					OFFSET 12.9942 -0.242716 4.98039
					CHANNELS 6 Xposition Yposition Zposition Zrotation Xrotation Yrotation 
					JOINT UpperArm_L
					{
						OFFSET 5.34809 0.0 0.0
						CHANNELS 6 Xposition Yposition Zposition Zrotation Xrotation Yrotation 
						JOINT LowerArm_L
						{
							OFFSET 24.3286 1.87007e-05 0.0
							CHANNELS 6 Xposition Yposition Zposition Zrotation Xrotation Yrotation 
							JOINT Hand_L
							{
								OFFSET 22.2916 0.0 0.0
								CHANNELS 6 Xposition Yposition Zposition Zrotation Xrotation Yrotation 
								End Site
								{
									OFFSET 0.0 0.0 0.0
								}
							}
						}
					}
				}
				JOINT Shoulder_R
				{
					OFFSET 12.9945 -0.242716 -4.98039
					CHANNELS 6 Xposition Yposition Zposition Zrotation Xrotation Yrotation 
					JOINT UpperArm_R
					{
						OFFSET -5.34813 0.0 0.0
						CHANNELS 6 Xposition Yposition Zposition Zrotation Xrotation Yrotation 
						JOINT LowerArm_R
						{
							OFFSET -24.3289 0.000322201 0.0
							CHANNELS 6 Xposition Yposition Zposition Zrotation Xrotation Yrotation 
							JOINT Hand_R
							{
								OFFSET -22.2915 -0.000108084 0.0
								CHANNELS 6 Xposition Yposition Zposition Zrotation Xrotation Yrotation 
								End Site
								{
									OFFSET 0.0 0.0 0.0
								}
							}
						}
					}
				}
			}
		}
		JOINT UpperLeg_L
		{
			OFFSET -2.19248 -6.46944 0.0
			CHANNELS 6 Xposition Yposition Zposition Zrotation Xrotation Yrotation 
			JOINT LowerLeg_L
			{
				OFFSET 39.0811 0.0 -1.23785e-05
				CHANNELS 6 Xposition Yposition Zposition Zrotation Xrotation Yrotation 
				JOINT Foot_L
				{
					OFFSET 40.9854 0.0 -1.26872e-05
					CHANNELS 6 Xposition Yposition Zposition Zrotation Xrotation Yrotation 
					JOINT Toes_L
					{
						OFFSET 11.7543 0.0 0.0
						CHANNELS 6 Xposition Yposition Zposition Zrotation Xrotation Yrotation 
						End Site
						{
							OFFSET 0.0 0.0 0.0
						}
					}
				}
			}
		}
		JOINT UpperLeg_R
		{
			OFFSET -2.19251 6.46944 0.0
			CHANNELS 6 Xposition Yposition Zposition Zrotation Xrotation Yrotation 
			JOINT LowerLeg_R
			{
				OFFSET -39.0811 -0.00228153 -0.0401928
				CHANNELS 6 Xposition Yposition Zposition Zrotation Xrotation Yrotation 
				JOINT Foot_R
				{
					OFFSET -40.9854 0.0 0.0
					CHANNELS 6 Xposition Yposition Zposition Zrotation Xrotation Yrotation 
					JOINT Toes_R
					{
						OFFSET -11.7543 0.0 0.0
						CHANNELS 6 Xposition Yposition Zposition Zrotation Xrotation Yrotation 
						End Site
						{
							OFFSET 0.0 0.0 0.0
						}
					}
				}
			}
		}
	}
}
MOTION
Frames:	6
Frame Time:	0.0333333
0.000000 0.000000 0.000000 0.000000 0.000000 -0.000000 -2.603590 85.409900 61.268600 -89.219600 2.944990 -177.357000 15.735700 0.000005 -0.000001 94.325200 82.441300 -94.923300 8.984550 -0.406207 -0.000000 7.315630 1.138250 -1.267660 16.377300 -0.000001 -0.000001 -1.976290 -4.145870 2.522290 6.456720 -0.000001 -0.000000 -3.185050 -4.830530 2.733900 12.994200 -0.242716 4.980390 -90.652400 2.211530 -73.557600 5.348090 -0.000007 -0.000001 -68.380100 19.039600 3.509590 24.328600 0.000019 0.000005 4.867450 0.400436 -85.308700 22.291600 -0.000001 0.000005 18.057000 5.464720 -5.174860 12.994500 -0.242716 -4.980390 88.548500 10.233400 -81.882800 -5.348130 -0.000001 -0.000004 -56.859700 28.122000 -11.447200 -24.328900 0.000322 -0.000009 -21.002600 -0.447083 -88.830900 -22.291500 -0.000108 -0.000004 25.201800 5.639840 -14.114600 -2.192480 -6.469440 -0.000000 179.018000 -3.781700 -26.516900 39.081100 -0.000007 -0.000012 -0.493888 0.363652 53.636700 40.985400 -0.000006 -0.000013 1.422840 -4.162230 -74.927400 11.754300 -0.000000 0.000003 -0.000188 -0.001759 -16.644000 -2.192510 6.469440 -0.000001 176.593000 6.495380 164.440000 -39.081100 -0.002282 -0.040193 0.137711 -0.034531 75.621100 -40.985400 0.000008 0.000006 4.976250 -3.456890 -46.392800 -11.754300 -0.000006 -0.000006 -0.015131 -0.138643 -22.229900
0.000000 0.000000 0.000000 0.000000 0.000000 -0.000000 -2.843770 84.506400 56.978700 -89.345500 2.652120 -177.488000 15.735700 0.000005 -0.000001 90.425700 82.410400 -91.166000 8.984550 -0.406207 -0.000000 7.413900 0.114628 -1.486490 16.377300 -0.000001 -0.000001 -2.061270 -4.035450 2.249180 6.456720 -0.000001 -0.000000 -3.275390 -4.271440 2.741530 12.994200 -0.242716 4.980390 -90.905900 3.134010 -73.868900 5.348090 -0.000007 -0.000001 -64.947200 18.683000 -4.523950 24.328600 0.000019 0.000005 4.171840 0.198280 -87.286400 22.291600 -0.000001 0.000005 18.825900 5.463150 -5.116540 12.994500 -0.242716 -4.980390 88.334600 11.029100 -81.358500 -5.348130 -0.000001 -0.000004 -58.993700 29.571700 -5.486680 -24.328900 0.000322 -0.000009 -18.681000 -2.090200 -83.839500 -22.291500 -0.000108 -0.000004 25.513900 5.641440 -14.249900 -2.192480 -6.469440 -0.000000 178.800000 -5.295090 -24.628400 39.081100 -0.000007 -0.000012 -0.546197 0.363725 56.340700 40.985400 -0.000006 -0.000013 2.073740 -2.916090 -79.700100 11.754300 -0.000000 0.000003 -0.000461 -0.003722 -16.714100 -2.192510 6.469440 -0.000001 177.152000 6.596440 158.967000 -39.081100 -0.002282 -0.040193 0.091163 -0.012789 81.768200 -40.985400 0.000008 0.000006 7.262610 -4.819810 -51.141500 -11.754300 -0.000006 -0.000006 -0.015291 -0.139640 -22.270800
0.000000 0.000000 0.000000 0.000000 0.000000 -0.000000 -2.939370 84.320000 52.876400 -89.025300 1.671890 -177.881000 15.735700 0.000005 -0.000001 85.870600 82.409400 -86.443700 8.984550 -0.406207 -0.000000 7.371610 -1.087140 -1.074940 16.377300 -0.000001 -0.000001 -2.111500 -4.184390 1.845110 6.456720 -0.000001 -0.000000 -3.241060 -3.844870 2.577560 12.994200 -0.242716 4.980390 -91.002100 3.646210 -74.621700 5.348090 -0.000007 -0.000001 -62.522100 18.045700 -12.694200 24.328600 0.000019 0.000005 2.091090 0.037366 -88.993800 22.291600 -0.000001 0.000005 18.719300 5.469280 -5.343520 12.994500 -0.242716 -4.980390 88.139300 11.158500 -80.470600 -5.348130 -0.000001 -0.000004 -61.766800 30.242400 0.702868 -24.328900 0.000322 -0.000009 -19.032900 -3.760930 -79.235400 -22.291500 -0.000108 -0.000004 26.598100 5.641370 -14.239600 -2.192480 -6.469440 -0.000000 179.303000 -5.717370 -21.699000 39.081100 -0.000007 -0.000012 -0.588225 0.392587 56.281900 40.985400 -0.000006 -0.000013 2.471370 -1.874550 -82.956300 11.754300 -0.000000 0.000003 -0.000643 -0.004912 -16.755200 -2.192510 6.469440 -0.000001 178.416000 8.008710 153.847000 -39.081100 -0.002282 -0.040193 0.079260 -0.009378 83.021100 -40.985400 0.000008 0.000006 6.815870 -5.639840 -55.485000 -11.754300 -0.000006 -0.000006 -0.013907 -0.130821 -21.908900
0.000000 0.000000 0.000000 0.000000 0.000000 -0.000000 -2.902950 84.862500 48.729800 -88.496600 0.477542 -178.425000 15.735700 0.000005 -0.000001 81.159800 82.437600 -81.395600 8.984550 -0.406207 -0.000000 7.178740 -2.314850 -0.326026 16.377300 -0.000001 -0.000001 -2.124680 -4.434310 1.546340 6.456720 -0.000001 -0.000000 -3.141510 -3.335510 2.421750 12.994200 -0.242716 4.980390 -90.877700 3.396090 -75.502000 5.348090 -0.000007 -0.000001 -61.554500 17.523800 -19.739900 24.328600 0.000019 0.000005 0.969549 -0.015100 -90.886000 22.291600 -0.000001 0.000005 18.863400 5.476490 -5.614560 12.994500 -0.242716 -4.980390 88.000200 10.858100 -79.498600 -5.348130 -0.000001 -0.000004 -64.445300 30.438400 7.346550 -24.328900 0.000322 -0.000009 -21.134100 -4.715970 -77.991300 -22.291500 -0.000108 -0.000004 27.105600 5.641190 -14.228400 -2.192480 -6.469440 -0.000000 -179.814000 -5.417210 -17.529500 39.081100 -0.000007 -0.000012 -0.586041 0.435955 53.356000 40.985400 -0.000006 -0.000013 2.581360 -1.022250 -84.727100 11.754300 -0.000000 0.000003 -0.000655 -0.004982 -16.757600 -2.192510 6.469440 -0.000001 -179.550000 10.028900 150.032000 -39.081100 -0.002282 -0.040193 0.059900 -0.010891 79.182900 -40.985400 0.000008 0.000006 7.161400 -6.006510 -59.593300 -11.754300 -0.000006 -0.000006 -0.015908 -0.143459 -22.427700
0.000000 0.000000 0.000000 0.000000 0.000000 -0.000000 -2.803950 85.971300 44.452000 -87.950900 -0.077990 -178.946000 15.735700 0.000005 -0.000001 76.971100 82.489900 -76.859500 8.984550 -0.406207 -0.000000 6.879990 -3.375810 0.425902 16.377300 -0.000001 -0.000001 -2.001200 -4.470510 1.415180 6.456720 -0.000001 -0.000000 -3.107980 -2.590070 2.450530 12.994200 -0.242716 4.980390 -90.529600 2.153250 -76.179700 5.348090 -0.000007 -0.000001 -62.226800 17.008000 -24.468200 24.328600 0.000019 0.000005 2.407400 -0.135863 -93.215900 22.291600 -0.000001 0.000005 18.949300 5.480690 -5.775110 12.994500 -0.242716 -4.980390 87.968700 10.103700 -78.569700 -5.348130 -0.000001 -0.000004 -66.834100 30.931100 13.336700 -24.328900 0.000322 -0.000009 -22.035800 -4.540300 -78.933200 -22.291500 -0.000108 -0.000004 26.401400 5.644850 -14.541900 -2.192480 -6.469440 -0.000000 -178.872000 -5.167540 -11.862600 39.081100 -0.000007 -0.000012 -0.515066 0.472313 47.480600 40.985400 -0.000006 -0.000013 2.362650 -0.528591 -85.030100 11.754300 -0.000000 0.000003 -0.000516 -0.004085 -16.726700 -2.192510 6.469440 -0.000001 -177.339000 11.489800 147.876000 -39.081100 -0.002282 -0.040193 0.038851 -0.012434 70.820800 -40.985400 0.000008 0.000006 6.000550 -5.620130 -62.719600 -11.754300 -0.000006 -0.000006 -0.016115 -0.144726 -22.479700
0.000000 0.000000 0.000000 0.000000 0.000000 -0.000000 -2.667690 87.305900 40.136500 -87.402400 -0.453122 179.788000 15.735700 0.000005 -0.000001 71.528100 82.766200 -71.013700 8.984550 -0.406207 -0.000000 5.991830 -4.579700 1.267940 16.377300 -0.000001 -0.000001 -1.949750 -4.329450 1.339390 6.456720 -0.000001 -0.000000 -2.984600 -1.681340 2.417600 12.994200 -0.242716 4.980390 -90.233400 0.949340 -76.186000 5.348090 -0.000007 -0.000001 -62.793000 17.261700 -27.252300 24.328600 0.000019 0.000005 3.290000 -0.321832 -95.582800 22.291600 -0.000001 0.000005 19.341400 5.480490 -5.768250 12.994500 -0.242716 -4.980390 88.084600 8.902530 -77.805600 -5.348130 -0.000001 -0.000004 -69.038700 31.726300 17.838800 -24.328900 0.000322 -0.000009 -21.012000 -3.799280 -80.211700 -22.291500 -0.000108 -0.000004 25.104200 5.644700 -14.533200 -2.192480 -6.469440 -0.000000 -178.576000 -4.511580 -6.829630 39.081100 -0.000007 -0.000012 0.011634 -0.013534 40.678500 40.985400 -0.000006 -0.000013 5.263700 -1.740470 -82.950700 11.754300 -0.000000 0.000003 -2.028270 -2.635510 -16.621400 -2.192510 6.469440 -0.000001 -174.852000 12.962200 146.636000 -39.081100 -0.002282 -0.040193 0.021023 -0.010786 58.807200 -40.985400 0.000008 0.000006 4.562040 -4.521170 -63.950400 -11.754300 -0.000006 -0.000006 -0.016432 -0.146657 -22.559000
